<?xml version="1.0"?>
<!--Icons from directory ""-->
<svg xmlns="http://www.w3.org/2000/svg" width="36" height="436" viewBox="0 0 36 436"><svg class="_8-yf5" fill="#262626" height="24" viewBox="0 0 48 48" width="24" id="comment" y="0"><path clip-rule="evenodd" d="M47.5 46.1l-2.8-11c1.8-3.3 2.8-7.1 2.8-11.1C47.5 11 37 .5 24 .5S.5 11 .5 24 11 47.5 24 47.5c4 0 7.8-1 11.1-2.8l11 2.8c.8.2 1.6-.6 1.4-1.4zm-3-22.1c0 4-1 7-2.6 10-.2.4-.3.9-.2 1.4l2.1 8.4-8.3-2.1c-.5-.1-1-.1-1.4.2-1.8 1-5.2 2.6-10 2.6-11.4 0-20.6-9.2-20.6-20.5S12.7 3.5 24 3.5 44.5 12.7 44.5 24z" fill-rule="evenodd"/></svg><svg aria-label="Close" class="_8-yf5" fill="#262626" height="24" viewBox="0 0 48 48" width="24" id="cross" y="24"><path clip-rule="evenodd" d="M41.1 9.1l-15 15L41 39c.6.6.6 1.5 0 2.1s-1.5.6-2.1 0L24 26.1l-14.9 15c-.6.6-1.5.6-2.1 0-.6-.6-.6-1.5 0-2.1l14.9-15-15-15c-.6-.6-.6-1.5 0-2.1s1.5-.6 2.1 0l15 15 15-15c.6-.6 1.5-.6 2.1 0 .6.6.6 1.6 0 2.2z" fill-rule="evenodd"/></svg><svg aria-label="Direct" class="_8-yf5" fill="#262626" height="22" viewBox="0 0 48 48" width="22" id="direct-filled" y="48"><path d="M47.8 3.8c-.3-.5-.8-.8-1.3-.8h-45C.9 3.1.3 3.5.1 4S0 5.2.4 5.7l13.2 13c.5.4 1.1.6 1.7.3l16.6-8c.7-.3 1.6-.1 2 .5.4.7.2 1.6-.5 2l-15.6 9.9c-.5.3-.8 1-.7 1.6l4.6 19c.1.6.6 1 1.2 1.1h.2c.5 0 1-.3 1.3-.7l23.2-39c.5-.5.5-1.1.2-1.6z"/></svg><svg aria-label="Direct" class="_8-yf5" fill="#262626" height="22" viewBox="0 0 48 48" width="22" id="direct" y="70"><path d="M47.8 3.8c-.3-.5-.8-.8-1.3-.8h-45C.9 3.1.3 3.5.1 4S0 5.2.4 5.7l15.9 15.6 5.5 22.6c.1.6.6 1 1.2 1.1h.2c.5 0 1-.3 1.3-.7l23.2-39c.4-.4.4-1 .1-1.5zM5.2 6.1h35.5L18 18.7 5.2 6.1zm18.7 33.6l-4.4-18.4L42.4 8.6 23.9 39.7z"/></svg><svg aria-label="Find People" class="_8-yf5" fill="#262626" height="22" viewBox="0 0 48 48" width="22" id="explore-filled" y="92"><path clip-rule="evenodd" d="M24 0C10.8 0 0 10.8 0 24s10.8 24 24 24 24-10.8 24-24S37.2 0 24 0zm12.2 13.8l-7 14.8c-.1.3-.4.6-.7.7l-14.8 7c-.2.1-.4.1-.6.1-.4 0-.8-.2-1.1-.4-.4-.4-.6-1.1-.3-1.7l7-14.8c.1-.3.4-.6.7-.7l14.8-7c.6-.3 1.3-.2 1.7.3.5.4.6 1.1.3 1.7zm-15 7.4l-5 10.5 10.5-5-5.5-5.5z" fill-rule="evenodd"/></svg><svg aria-label="Find People" class="_8-yf5" fill="#262626" height="22" viewBox="0 0 48 48" width="22" id="explore" y="114"><path clip-rule="evenodd" d="M24 0C10.8 0 0 10.8 0 24s10.8 24 24 24 24-10.8 24-24S37.2 0 24 0zm0 45C12.4 45 3 35.6 3 24S12.4 3 24 3s21 9.4 21 21-9.4 21-21 21zm10.2-33.2l-14.8 7c-.3.1-.6.4-.7.7l-7 14.8c-.3.6-.2 1.3.3 1.7.3.3.7.4 1.1.4.2 0 .4 0 .6-.1l14.8-7c.3-.1.6-.4.7-.7l7-14.8c.3-.6.2-1.3-.3-1.7-.4-.5-1.1-.6-1.7-.3zm-7.4 15l-5.5-5.5 10.5-5-5 10.5z" fill-rule="evenodd"/></svg><svg aria-label="Posts" class="_8-yf5" fill="#262626" height="12" viewBox="0 0 48 48" width="12" id="grid-active" y="136"><path clip-rule="evenodd" d="M45 1.5H3c-.8 0-1.5.7-1.5 1.5v42c0 .8.7 1.5 1.5 1.5h42c.8 0 1.5-.7 1.5-1.5V3c0-.8-.7-1.5-1.5-1.5zm-40.5 3h11v11h-11v-11zm0 14h11v11h-11v-11zm11 25h-11v-11h11v11zm14 0h-11v-11h11v11zm0-14h-11v-11h11v11zm0-14h-11v-11h11v11zm14 28h-11v-11h11v11zm0-14h-11v-11h11v11zm0-14h-11v-11h11v11z" fill-rule="evenodd"/></svg><svg aria-label="Posts" class="_8-yf5" fill="#8e8e8e" height="12" viewBox="0 0 48 48" width="12" id="grid" y="148"><path clip-rule="evenodd" d="M45 1.5H3c-.8 0-1.5.7-1.5 1.5v42c0 .8.7 1.5 1.5 1.5h42c.8 0 1.5-.7 1.5-1.5V3c0-.8-.7-1.5-1.5-1.5zm-40.5 3h11v11h-11v-11zm0 14h11v11h-11v-11zm11 25h-11v-11h11v11zm14 0h-11v-11h11v11zm0-14h-11v-11h11v11zm0-14h-11v-11h11v11zm14 28h-11v-11h11v11zm0-14h-11v-11h11v11zm0-14h-11v-11h11v11z" fill-rule="evenodd"/></svg><svg aria-label="Home" class="_8-yf5" fill="#262626" height="22" viewBox="0 0 48 48" width="22" id="home-filled" y="160"><path d="M45.5 48H30.1c-.8 0-1.5-.7-1.5-1.5V34.2c0-2.6-2.1-4.6-4.6-4.6s-4.6 2.1-4.6 4.6v12.3c0 .8-.7 1.5-1.5 1.5H2.5c-.8 0-1.5-.7-1.5-1.5V23c0-.4.2-.8.4-1.1L22.9.4c.6-.6 1.6-.6 2.1 0l21.5 21.5c.3.3.4.7.4 1.1v23.5c.1.8-.6 1.5-1.4 1.5z"/></svg><svg aria-label="Home" class="_8-yf5" fill="#262626" height="22" viewBox="0 0 48 48" width="22" id="home" y="182"><path d="M45.3 48H30c-.8 0-1.5-.7-1.5-1.5V34.2c0-2.6-2-4.6-4.6-4.6s-4.6 2-4.6 4.6v12.3c0 .8-.7 1.5-1.5 1.5H2.5c-.8 0-1.5-.7-1.5-1.5V23c0-.4.2-.8.4-1.1L22.9.4c.6-.6 1.5-.6 2.1 0l21.5 21.5c.4.4.6 1.1.3 1.6 0 .1-.1.1-.1.2v22.8c.1.8-.6 1.5-1.4 1.5zm-13.8-3h12.3V23.4L24 3.6l-20 20V45h12.3V34.2c0-4.3 3.3-7.6 7.6-7.6s7.6 3.3 7.6 7.6V45z"/></svg><svg class="_8-yf5" fill="#262626" height="24" viewBox="0 0 48 48" width="24" id="like" y="204"><path d="M34.6 6.1c5.7 0 10.4 5.2 10.4 11.5 0 6.8-5.9 11-11.5 16S25 41.3 24 41.9c-1.1-.7-4.7-4-9.5-8.3-5.7-5-11.5-9.2-11.5-16C3 11.3 7.7 6.1 13.4 6.1c4.2 0 6.5 2 8.1 4.3 1.9 2.6 2.2 3.9 2.5 3.9.3 0 .6-1.3 2.5-3.9 1.6-2.3 3.9-4.3 8.1-4.3m0-3c-4.5 0-7.9 1.8-10.6 5.6-2.7-3.7-6.1-5.5-10.6-5.5C6 3.1 0 9.6 0 17.6c0 7.3 5.4 12 10.6 16.5.6.5 1.3 1.1 1.9 1.7l2.3 2c4.4 3.9 6.6 5.9 7.6 6.5.5.3 1.1.5 1.6.5.6 0 1.1-.2 1.6-.5 1-.6 2.8-2.2 7.8-6.8l2-1.8c.7-.6 1.3-1.2 2-1.7C42.7 29.6 48 25 48 17.6c0-8-6-14.5-13.4-14.5z"/></svg><svg class="_8-yf5" fill="#ed4956" height="24" viewBox="0 0 48 48" width="24" id="liked" y="228"><path d="M34.6 3.1c-4.5 0-7.9 1.8-10.6 5.6-2.7-3.7-6.1-5.5-10.6-5.5C6 3.1 0 9.6 0 17.6c0 7.3 5.4 12 10.6 16.5.6.5 1.3 1.1 1.9 1.7l2.3 2c4.4 3.9 6.6 5.9 7.6 6.5.5.3 1.1.5 1.6.5s1.1-.2 1.6-.5c1-.6 2.8-2.2 7.8-6.8l2-1.8c.7-.6 1.3-1.2 2-1.7C42.7 29.6 48 25 48 17.6c0-8-6-14.5-13.4-14.5z"/></svg><svg aria-label="Activity Feed" class="_8-yf5" fill="#262626" height="22" viewBox="0 0 48 48" width="22" id="notifications-filled" y="252"><path d="M34.6 3.1c-4.5 0-7.9 1.8-10.6 5.6-2.7-3.7-6.1-5.5-10.6-5.5C6 3.1 0 9.6 0 17.6c0 7.3 5.4 12 10.6 16.5.6.5 1.3 1.1 1.9 1.7l2.3 2c4.4 3.9 6.6 5.9 7.6 6.5.5.3 1.1.5 1.6.5s1.1-.2 1.6-.5c1-.6 2.8-2.2 7.8-6.8l2-1.8c.7-.6 1.3-1.2 2-1.7C42.7 29.6 48 25 48 17.6c0-8-6-14.5-13.4-14.5z"/></svg><svg aria-label="Activity Feed" class="_8-yf5" fill="#262626" height="22" viewBox="0 0 48 48" width="22" id="notifications" y="274"><path d="M34.6 6.1c5.7 0 10.4 5.2 10.4 11.5 0 6.8-5.9 11-11.5 16S25 41.3 24 41.9c-1.1-.7-4.7-4-9.5-8.3-5.7-5-11.5-9.2-11.5-16C3 11.3 7.7 6.1 13.4 6.1c4.2 0 6.5 2 8.1 4.3 1.9 2.6 2.2 3.9 2.5 3.9.3 0 .6-1.3 2.5-3.9 1.6-2.3 3.9-4.3 8.1-4.3m0-3c-4.5 0-7.9 1.8-10.6 5.6-2.7-3.7-6.1-5.5-10.6-5.5C6 3.1 0 9.6 0 17.6c0 7.3 5.4 12 10.6 16.5.6.5 1.3 1.1 1.9 1.7l2.3 2c4.4 3.9 6.6 5.9 7.6 6.5.5.3 1.1.5 1.6.5.6 0 1.1-.2 1.6-.5 1-.6 2.8-2.2 7.8-6.8l2-1.8c.7-.6 1.3-1.2 2-1.7C42.7 29.6 48 25 48 17.6c0-8-6-14.5-13.4-14.5z"/></svg><svg aria-label="Profile" class="_8-yf5" fill="#262626" height="16" viewBox="0 0 32 32" width="16" id="profile" y="296"><path d="M16 0C7.2 0 0 7.1 0 16c0 4.8 2.1 9.1 5.5 12l.3.3C8.5 30.6 12.1 32 16 32s7.5-1.4 10.2-3.7l.3-.3c3.4-3 5.5-7.2 5.5-12 0-8.9-7.2-16-16-16zm0 29c-2.8 0-5.3-.9-7.5-2.4.5-.9.9-1.3 1.4-1.8.7-.5 1.5-.8 2.4-.8h7.2c.9 0 1.7.3 2.4.8.5.4.9.8 1.4 1.8-2 1.5-4.5 2.4-7.3 2.4zm9.7-4.4c-.5-.9-1.1-1.5-1.9-2.1-1.2-.9-2.7-1.4-4.2-1.4h-7.2c-1.5 0-3 .5-4.2 1.4-.8.6-1.4 1.2-1.9 2.1C4.2 22.3 3 19.3 3 16 3 8.8 8.8 3 16 3s13 5.8 13 13c0 3.3-1.2 6.3-3.3 8.6zM16 5.7c-3.9 0-7 3.1-7 7s3.1 7 7 7 7-3.1 7-7-3.1-7-7-7zm0 11c-2.2 0-4-1.8-4-4s1.8-4 4-4 4 1.8 4 4-1.8 4-4 4z"/></svg><svg aria-label="Remove" class="_8-yf5" fill="#262626" height="24" viewBox="0 0 48 48" width="24" id="save-filled" y="312"><path d="M43.5 48c-.4 0-.8-.2-1.1-.4L24 28.9 5.6 47.6c-.4.4-1.1.6-1.6.3-.6-.2-1-.8-1-1.4v-45C3 .7 3.7 0 4.5 0h39c.8 0 1.5.7 1.5 1.5v45c0 .6-.4 1.2-.9 1.4-.2.1-.4.1-.6.1z"/></svg><svg aria-label="Save" class="_8-yf5" fill="#262626" height="24" viewBox="0 0 48 48" width="24" id="save" y="336"><path d="M43.5 48c-.4 0-.8-.2-1.1-.4L24 29 5.6 47.6c-.4.4-1.1.6-1.6.3-.6-.2-1-.8-1-1.4v-45C3 .7 3.7 0 4.5 0h39c.8 0 1.5.7 1.5 1.5v45c0 .6-.4 1.2-.9 1.4-.2.1-.4.1-.6.1zM24 26c.8 0 1.6.3 2.2.9l15.8 16V3H6v39.9l15.8-16c.6-.6 1.4-.9 2.2-.9z"/></svg><svg aria-label="Saved" class="_8-yf5" fill="#262626" height="12" viewBox="0 0 48 48" width="12" id="saved-active-tab" y="360"><path d="M43.5 48c-.4 0-.8-.2-1.1-.4L24 29 5.6 47.6c-.4.4-1.1.6-1.6.3-.6-.2-1-.8-1-1.4v-45C3 .7 3.7 0 4.5 0h39c.8 0 1.5.7 1.5 1.5v45c0 .6-.4 1.2-.9 1.4-.2.1-.4.1-.6.1zM24 26c.8 0 1.6.3 2.2.9l15.8 16V3H6v39.9l15.8-16c.6-.6 1.4-.9 2.2-.9z"/></svg><svg aria-label="Saved" class="_8-yf5" fill="#8e8e8e" height="12" viewBox="0 0 48 48" width="12" id="saved-tab" y="372"><path d="M43.5 48c-.4 0-.8-.2-1.1-.4L24 29 5.6 47.6c-.4.4-1.1.6-1.6.3-.6-.2-1-.8-1-1.4v-45C3 .7 3.7 0 4.5 0h39c.8 0 1.5.7 1.5 1.5v45c0 .6-.4 1.2-.9 1.4-.2.1-.4.1-.6.1zM24 26c.8 0 1.6.3 2.2.9l15.8 16V3H6v39.9l15.8-16c.6-.6 1.4-.9 2.2-.9z"/></svg><svg viewBox="0 0 24 24" fill="#fff" width="36" height="36" id="search-white-36dp" y="384"><path d="M0 0h24v24H0z" fill="none"/><path d="M15.5 14h-.79l-.28-.27A6.471 6.471 0 0016 9.5 6.5 6.5 0 109.5 16c1.61 0 3.09-.59 4.23-1.57l.27.28v.79l5 4.99L20.49 19l-4.99-5zm-6 0C7.01 14 5 11.99 5 9.5S7.01 5 9.5 5 14 7.01 14 9.5 11.99 14 9.5 14z"/></svg><svg aria-label="Settings" class="_8-yf5" fill="#262626" height="16" viewBox="0 0 32 32" width="16" id="settings" y="420"><path d="M31.2 13.4l-1.4-.7c-.1 0-.2-.1-.2-.2v-.2c-.3-1.1-.7-2.1-1.3-3.1v-.1l-.2-.1v-.3l.5-1.5c.2-.5 0-1.1-.4-1.5l-1.9-1.9c-.4-.4-1-.5-1.5-.4l-1.5.5H23l-.1-.1h-.1c-1-.5-2-1-3.1-1.3h-.2c-.1 0-.1-.1-.2-.2L18.6.9c-.2-.5-.7-.9-1.2-.9h-2.7c-.5 0-1 .3-1.3.8l-.7 1.4c0 .1-.1.2-.2.2h-.2c-1.1.3-2.1.7-3.1 1.3h-.1l-.1.2h-.3l-1.5-.5c-.5-.2-1.1 0-1.5.4L3.8 5.7c-.4.4-.5 1-.4 1.5l.5 1.5v.5c-.5 1-1 2-1.3 3.1v.2c0 .1-.1.1-.2.2l-1.4.7c-.6.2-1 .7-1 1.2v2.7c0 .5.3 1 .8 1.3l1.4.7c.1 0 .2.1.2.2v.2c.3 1.1.7 2.1 1.3 3.1v.1l.2.1v.3l-.5 1.5c-.2.5 0 1.1.4 1.5l1.9 1.9c.3.3.6.4 1 .4.2 0 .3 0 .5-.1l1.5-.5H9l.1.1h.1c1 .5 2 1 3.1 1.3h.2c.1 0 .1.1.2.2l.7 1.4c.2.5.7.8 1.3.8h2.7c.5 0 1-.3 1.3-.8l.7-1.4c0-.1.1-.2.2-.2h.2c1.1-.3 2.1-.7 3.1-1.3h.1l.1-.1h.3l1.5.5c.1 0 .3.1.5.1.4 0 .7-.1 1-.4l1.9-1.9c.4-.4.5-1 .4-1.5l-.5-1.5V23l.1-.1v-.1c.5-1 1-2 1.3-3.1v-.2c0-.1.1-.1.2-.2l1.4-.7c.5-.2.8-.7.8-1.3v-2.7c0-.5-.4-1-.8-1.2zM16 27.1c-6.1 0-11.1-5-11.1-11.1S9.9 4.9 16 4.9s11.1 5 11.1 11.1-5 11.1-11.1 11.1z"/></svg></svg>
